<svg style="fill: #1e53a6;" enable-background="new 0 0 512 512" height="512" viewBox="0 0 512 512" width="512" xmlns="http://www.w3.org/2000/svg"><path d="m351.334 340.278v-81.718h-190.667v49.223h-160.667v204.217h512v-171.722zm-190.667 141.722h-130.667v-144.217h130.667zm160.667 0h-130.667v-174.217-19.223h130.667v51.719zm160.666 0h-130.666v-111.722h130.666z"/><path d="m201.868 166.603 54.132-17.248 54.132 17.248.325-56.813 33.131-46.153-53.932-17.864-33.656-45.773-33.656 45.772-53.932 17.864 33.131 46.153zm38.983-95.358 15.149-20.603 15.149 20.603 24.275 8.041-14.913 20.774-.146 25.572-24.365-7.763-24.366 7.764-.146-25.572-14.913-20.774z"/><path d="m51.028 225.145 44.305-14.116 44.306 14.116.266-46.5 27.117-37.775-44.142-14.622-27.546-37.462-27.546 37.462-44.142 14.622 27.116 37.775zm35.266-73.424 9.04-12.293 9.04 12.293 14.485 4.798-8.899 12.396-.087 15.259-14.539-4.633-14.54 4.633-.087-15.259-8.898-12.396z"/><path d="m372.361 225.145 44.306-14.116 44.305 14.116.267-46.5 27.116-37.775-44.142-14.622-27.546-37.462-27.546 37.462-44.142 14.622 27.117 37.775zm35.266-73.424 9.04-12.293 9.04 12.293 14.485 4.798-8.898 12.396-.087 15.259-14.54-4.633-14.539 4.633-.087-15.259-8.899-12.396z"/></svg>