<svg height="512pt" viewBox="-63 0 512 512.001" width="512pt" xmlns="http://www.w3.org/2000/svg"><path d="m379.203125 384.757812c4.183594 0 7.574219-3.390624 7.574219-7.574218v-359.511719c0-9.742187-7.925782-17.671875-17.671875-17.671875h-26.257813c-9.742187 0-17.671875 7.929688-17.671875 17.671875v59.078125h-17.167969v-2.523438c0-15.316406-12.457031-27.773437-27.769531-27.773437-7.953125 0-15.128906 3.367187-20.199219 8.742187-5.066406-5.375-12.242187-8.742187-20.195312-8.742187s-15.128906 3.367187-20.195312 8.742187c-5.070313-5.375-12.246094-8.742187-20.199219-8.742187-15.3125 0-27.769531 12.460937-27.769531 27.773437v2.523438h-110.078126v-59.078125c0-9.742187-7.925781-17.671875-17.671874-17.671875h-26.257813c-9.742187 0-17.671875 7.929688-17.671875 17.671875v81.800781c0 4.183594 3.390625 7.574219 7.574219 7.574219 4.183593 0 7.574219-3.390625 7.574219-7.574219v-81.800781c0-1.390625 1.132812-2.523437 2.523437-2.523437h26.257813c1.394531 0 2.523437 1.132812 2.523437 2.523437v476.65625c0 1.390625-1.128906 2.523437-2.523437 2.523437h-26.257813c-1.390625 0-2.523437-1.128906-2.523437-2.523437v-359.511719c0-4.183594-3.390626-7.574218-7.574219-7.574218-4.183594 0-7.574219 3.390624-7.574219 7.574218v359.511719c0 9.746094 7.929688 17.671875 17.671875 17.671875h26.257813c9.746093 0 17.671874-7.925781 17.671874-17.671875v-59.078125h39.386719v2.523438c0 15.316406 12.457031 27.773437 27.769531 27.773437 7.953126 0 15.128907-3.367187 20.199219-8.742187 5.066407 5.375 12.242188 8.742187 20.195313 8.742187s15.128906-3.367187 20.195312-8.742187c5.070313 5.375 12.246094 8.742187 20.199219 8.742187 15.3125 0 27.769531-12.460937 27.769531-27.773437v-2.523438h87.859375v59.078125c0 9.742187 7.925781 17.671875 17.671875 17.671875h26.257813c9.742187 0 17.671875-7.929688 17.671875-17.671875v-81.800781c0-4.183594-3.390625-7.574219-7.574219-7.574219s-7.574219 3.390625-7.574219 7.574219v81.800781c0 1.390625-1.132812 2.523437-2.523437 2.523437h-26.257813c-1.390625 0-2.523437-1.132812-2.523437-2.523437v-476.65625c0-1.390625 1.132812-2.523437 2.523437-2.523437h26.257813c1.394531 0 2.523437 1.132812 2.523437 2.523437v359.511719c0 4.183594 3.390625 7.574218 7.574219 7.574218zm-111.589844-68.164062c0-6.960938 5.664063-12.625 12.625-12.625 6.960938 0 12.621094 5.664062 12.621094 12.625v20.195312c0 6.960938-5.660156 12.621094-12.621094 12.621094-6.960937 0-12.625-5.660156-12.625-12.621094zm12.625-27.773438c-15.3125 0-27.773437 12.460938-27.773437 27.773438v2.523438h-24.234375v-2.523438c0-15.316406-12.460938-27.773438-27.773438-27.773438-15.308593 0-27.769531 12.460938-27.769531 27.773438v2.523438h-25.246094v-2.523438c0-15.316406-12.460937-27.773438-27.773437-27.773438-15.308594 0-27.769531 12.460938-27.769531 27.773438v2.523438h-30.296876v-106.035157h59.582032v2.523438c0 15.3125 12.460937 27.773437 27.773437 27.773437 7.949219 0 15.128907-3.367187 20.195313-8.742187 5.066406 5.375 12.246094 8.742187 20.195312 8.742187 15.316406 0 27.773438-12.460937 27.773438-27.773437v-2.523438h35.34375v2.523438c0 15.3125 12.460937 27.773437 27.773437 27.773437 15.308594 0 27.769531-12.460937 27.769531-27.773437v-2.523438h17.167969v106.035157h-17.167969v-2.527344c0-15.3125-12.457031-27.769532-27.769531-27.769532zm-92.402343 27.773438c0-6.960938 5.664062-12.625 12.621093-12.625 6.960938 0 12.625 5.664062 12.625 12.625v20.195312c0 6.960938-5.664062 12.621094-12.625 12.621094-6.957031 0-12.621093-5.660156-12.621093-12.621094zm-80.789063 0c0-6.960938 5.664063-12.625 12.621094-12.625 6.960937 0 12.625 5.664062 12.625 12.625v20.195312c0 6.960938-5.664063 12.621094-12.625 12.621094-6.957031 0-12.621094-5.660156-12.621094-12.621094zm54.53125-100.988281c0 6.960937-5.664063 12.625-12.621094 12.625-6.960937 0-12.625-5.664063-12.625-12.625v-20.195313c0-6.960937 5.664063-12.625 12.625-12.625 6.960938 0 12.621094 5.664063 12.621094 12.625zm15.148437-20.199219c0-6.960938 5.664063-12.621094 12.621094-12.621094 6.960938 0 12.625 5.664063 12.625 12.621094v20.199219c0 6.960937-5.664062 12.621093-12.625 12.621093-6.957031 0-12.621094-5.660156-12.621094-12.621093zm116.132813 20.199219c0 6.960937-5.660156 12.625-12.621094 12.625-6.960937 0-12.625-5.664063-12.625-12.625v-20.195313c0-6.960937 5.664063-12.625 12.625-12.625 6.960938 0 12.621094 5.664063 12.621094 12.625zm-12.621094-154.003907c6.960938 0 12.621094 5.664063 12.621094 12.625v20.195313c0 6.960937-5.660156 12.625-12.621094 12.625-6.960937 0-12.625-5.664063-12.625-12.625v-20.195313c0-6.960937 5.664063-12.625 12.625-12.625zm-40.394531 0c6.960938 0 12.621094 5.664063 12.621094 12.625v20.195313c0 6.960937-5.660156 12.625-12.621094 12.625s-12.625-5.664063-12.625-12.625v-20.195313c0-6.960937 5.664062-12.625 12.625-12.625zm-53.019531 12.625c0-6.960937 5.664062-12.625 12.625-12.625 6.960937 0 12.621093 5.664063 12.621093 12.625v20.195313c0 6.960937-5.660156 12.625-12.621093 12.625-6.960938 0-12.625-5.664063-12.625-12.625zm-15.148438 17.671876v2.523437c0 15.3125 12.460938 27.769531 27.773438 27.769531 7.953125 0 15.128906-3.363281 20.195312-8.738281 5.070313 5.375 12.246094 8.738281 20.199219 8.738281 7.949219 0 15.128906-3.363281 20.195312-8.738281 5.070313 5.375 12.246094 8.738281 20.199219 8.738281 15.3125 0 27.769531-12.457031 27.769531-27.769531v-2.523437h17.167969v106.035156h-17.167969v-2.527344c0-15.3125-12.460937-27.769531-27.769531-27.769531-15.3125 0-27.773437 12.457031-27.773437 27.769531v2.527344h-35.34375v-2.527344c0-15.3125-12.460938-27.769531-27.773438-27.769531-7.949218 0-15.128906 3.363281-20.195312 8.742187-5.066406-5.375-12.246094-8.742187-20.195313-8.742187-15.316406 0-27.773437 12.457031-27.773437 27.769531v2.527344h-59.582032v-106.035156zm-42.917969 358.5c-6.960937 0-12.621093-5.664063-12.621093-12.625v-20.195313c0-6.960937 5.660156-12.625 12.621093-12.625 6.960938 0 12.625 5.664063 12.625 12.625v20.195313c0 6.960937-5.664062 12.625-12.625 12.625zm40.394532 0c-6.960938 0-12.621094-5.664063-12.621094-12.625v-20.195313c0-6.960937 5.660156-12.625 12.621094-12.625 6.960937 0 12.625 5.664063 12.625 12.625v20.195313c0 6.960937-5.664063 12.625-12.625 12.625zm53.019531-12.625c0 6.960937-5.664063 12.625-12.625 12.625s-12.621094-5.664063-12.621094-12.625v-20.195313c0-6.960937 5.660157-12.625 12.621094-12.625s12.625 5.664063 12.625 12.625zm15.148437-17.671876v-2.523437c0-15.3125-12.460937-27.769531-27.773437-27.769531-7.953125 0-15.128906 3.363281-20.195313 8.738281-5.070312-5.375-12.246093-8.738281-20.199218-8.738281-7.949219 0-15.128906 3.363281-20.195313 8.738281-5.070312-5.375-12.246093-8.738281-20.199219-8.738281-15.3125 0-27.769531 12.457031-27.769531 27.769531v2.523437h-39.386719v-85.835937h30.296876v2.523437c0 15.3125 12.460937 27.773438 27.773437 27.773438s27.769531-12.460938 27.769531-27.773438v-2.523437h25.246094v2.523437c0 15.3125 12.460938 27.773438 27.773438 27.773438s27.769531-12.460938 27.769531-27.773438v-2.523437h24.238281v2.523437c0 15.3125 12.457031 27.773438 27.769531 27.773438s27.769531-12.460938 27.769531-27.773438v-2.523437h17.167969v85.835937zm0 0"/></svg>