<?xml version="1.0" encoding="iso-8859-1"?>
<!-- Generator: Adobe Illustrator 19.0.0, SVG Export Plug-In . SVG Version: 6.00 Build 0)  -->
<svg version="1.1" id="Capa_1" xmlns="http://www.w3.org/2000/svg" xmlns:xlink="http://www.w3.org/1999/xlink" x="0px" y="0px"
	 viewBox="0 0 511.977 511.977" style="enable-background:new 0 0 511.977 511.977;" xml:space="preserve">
<g>
	<g>
		<path d="M511.971,46.337c0.029-11.996-4.554-23.544-12.8-32.256c-8.588-8.955-20.446-14.037-32.853-14.08
			c-13.325-0.077-26.142,5.105-35.669,14.421l-40.021,39.936L338.829,2.476c-0.717-0.711-1.555-1.289-2.475-1.707h-0.768
			c-0.727-0.365-1.503-0.623-2.304-0.768H111.416C87.575,0.095,68.284,19.423,68.237,43.265v328.192l-5.376,5.291
			c-0.431,0.496-0.803,1.04-1.109,1.621c0,0-0.427,0-0.597,0.683L0.909,499.628c-2.108,4.215-0.399,9.341,3.816,11.449
			c2.581,1.291,5.64,1.189,8.13-0.27l66.816-38.656c8.141,9.005,19.69,14.176,31.829,14.251h287.744
			c23.861,0,43.217-19.318,43.264-43.179l1.195-195.755v-89.259l21.419-21.675c4.771-4.81,7.441-11.316,7.424-18.091
			c-0.023-3.814-0.897-7.575-2.56-11.008l28.16-28.245C506.935,70.51,511.908,58.689,511.971,46.337z M341.304,29.1l37.717,37.291
			l-29.184,29.013c-5.407-4.923-8.503-11.887-8.533-19.2V29.1z M85.304,43.265c0-14.468,11.729-26.197,26.197-26.197h212.736v59.136
			c0.01,11.762,4.818,23.011,13.312,31.147l-90.709,88.917H119.437c-4.713,0-8.533,3.82-8.533,8.533s3.82,8.533,8.533,8.533h110.08
			l-17.067,17.067h-93.013c-4.713,0-8.533,3.82-8.533,8.533s3.82,8.533,8.533,8.533h75.264l-17.067,17.067h-58.197
			c-4.713,0-8.533,3.821-8.533,8.533c0,4.713,3.82,8.533,8.533,8.533h40.448l-17.067,17.067h-23.381
			c-4.713,0-8.533,3.82-8.533,8.533s3.82,8.533,8.533,8.533h5.632l-39.765,38.997V43.265z M85.304,378.625l66.645-65.365
			l198.4-194.56l30.208,30.208l-78.336,78.421c-3.309,3.328-3.309,8.704,0,12.032l5.973,5.973l-57.259,55.723L123.277,425.132
			l-37.973-37.973V378.625z M332.344,221.27l12.117,12.117l-12.117,12.117l-12.117-12.117L332.344,221.27z M28.899,481.793
			l42.24-84.565l38.144,37.973L28.899,481.793z M426.637,247.468l-1.195,195.755c-0.047,14.435-11.762,26.112-26.197,26.112H111.501
			c-6.217,0.097-12.267-2.02-17.067-5.973l32.597-18.859c0.62-0.354,1.194-0.784,1.707-1.28l131.499-127.488h123.733
			c4.713,0,8.533-3.82,8.533-8.533s-3.82-8.533-8.533-8.533H277.816l42.667-41.216l6.144,6.144c1.211,1.329,2.898,2.126,4.693,2.219
			h1.28c0.813-0.028,1.617-0.171,2.389-0.427h0.853c1.055-0.431,2.012-1.07,2.816-1.877l87.979-88.235V247.468z M452.97,124.623
			c-0.045,0.046-0.09,0.091-0.135,0.135l0.085,0.171l-23.808,23.808l-72.704,72.704l-12.117-12.117l54.357-54.357l35.499-35.499
			h1.024c3.445-0.017,6.542-2.104,7.851-5.291c0.437-1.026,0.669-2.128,0.683-3.243c0.903-0.328,1.855-0.501,2.816-0.512h0.768
			c0.784,0.036,1.559,0.179,2.304,0.427h0.683c0.95,0.409,1.817,0.987,2.56,1.707C456.204,115.85,456.265,121.253,452.97,124.623z
			 M494.904,46.422c0.07,7.856-3.002,15.414-8.533,20.992l-28.075,28.16h-0.939l-1.365-0.512l-3.072-0.853h-1.365
			c-1.306-0.1-2.619-0.1-3.925,0h-0.512c-1.476-0.128-2.961-0.128-4.437,0h-1.195l-3.157,0.939l-1.365,0.597l-2.901,1.536
			l-1.195,0.768c-1.313,0.88-2.541,1.88-3.669,2.987l-2.56,1.365l-2.304,2.304l-31.829,31.829l-30.037-29.867L396.6,72.534
			l45.739-45.739c6.212-6.399,14.807-9.923,23.723-9.728c7.634,0.036,14.941,3.106,20.309,8.533
			c5.384,5.468,8.442,12.807,8.533,20.48V46.422z"/>
	</g>
</g>
<g>
</g>
<g>
</g>
<g>
</g>
<g>
</g>
<g>
</g>
<g>
</g>
<g>
</g>
<g>
</g>
<g>
</g>
<g>
</g>
<g>
</g>
<g>
</g>
<g>
</g>
<g>
</g>
<g>
</g>
</svg>
